<?xml version="1.0" encoding="UTF-8"?>
<svg xmlns="http://www.w3.org/2000/svg" width="700" height="700">
  <g id="cambodia">
    <path d="M 148.7605 171.7367 146.7798 176.6884 148.1663 197.4858 144.601 204.0221 144.7991 233.5346 124.5959 234.1288 112.5136 229.3751 86.5664 235.9115 66.3632 231.9501 60.025 227.7906 52.6964 234.3269 47.5465 233.3365 43.9813 228.3848 2.9807 224.8195 1 217.0948 3.3768 213.9257 27.3434 213.9257 38.4353 208.7758 31.1067 203.0318 31.3048 200.0607 51.9041 187.9784 62.0057 164.6061 74.8802 153.3161 81.4166 131.1322 94.4892 124.0017 105.185 131.3303 108.5522 138.2628 117.4654 140.2435 116.277 149.1566 119.8422 149.1566 126.5766 156.2872 135.2917 147.9682 137.0743 156.4852 146.7798 164.6061 148.7605 171.7367 Z" id="KH.OM" fill="#cee3f5" stroke="#6e6e6e" stroke-width="0.4">
      <desc>
        <labelrank>7</labelrank>
        <code_hasc>KH.OM</code_hasc>
        <name>Bântéay Méanchey</name>
        <admin>Cambodia</admin>
        <type_en>Province</type_en>
        <region/>
        <woe_id>20070093</woe_id>
        <longitude>102</longitude>
        <woe_name>Bântéay Méanchey</woe_name>
        <fips>CB25</fips>
        <woe_label>Banteay Mean Cheay, KH, Cambodia</woe_label>
        <latitude>13</latitude>
        <iso_a2>KH</iso_a2>
        <postal>OM</postal>
        <type>Khêt</type>
        <id>KH.OM</id>
      </desc>
    </path>
    <path d="M 144.7991 233.5346 149.3547 238.0902 155.693 237.8922 166.983 244.4285 179.4614 247.2015 197.6839 271.9603 180.8479 287.8059 183.6209 295.3326 180.2537 305.4342 172.9251 313.1589 175.5 316.9222 172.9251 325.0431 175.3019 335.937 167.9733 347.8212 157.2775 350.7923 132.5187 347.0289 98.4506 359.1112 89.3394 356.1402 84.7838 361.0919 65.1748 370.2032 59.0346 368.0244 36.0585 342.8695 23.7781 336.9274 45.5658 331.5795 56.0636 325.4393 58.8365 298.6998 56.6578 284.8348 47.9427 275.3275 39.2276 277.5062 34.87 289.5885 23.382 290.975 9.319 271.7622 2.3865 252.9455 2.9807 224.8195 43.9813 228.3848 47.5465 233.3365 52.6964 234.3269 60.025 227.7906 66.3632 231.9501 86.5664 235.9115 112.5136 229.3751 124.5959 234.1288 144.7991 233.5346 Z" id="KH.BA" fill="#cee3f5" stroke="#6e6e6e" stroke-width="0.4">
      <desc>
        <labelrank>7</labelrank>
        <code_hasc>KH.BA</code_hasc>
        <name>Batdâmbâng</name>
        <admin>Cambodia</admin>
        <type_en>Province</type_en>
        <region/>
        <woe_id>20070098</woe_id>
        <longitude>103</longitude>
        <woe_name>Batdâmbâng</woe_name>
        <fips>CB29</fips>
        <woe_label>Batdambang, KH, Cambodia</woe_label>
        <latitude>12</latitude>
        <iso_a2>KH</iso_a2>
        <postal>BA</postal>
        <type>Khêt</type>
        <id>KH.BA</id>
      </desc>
    </path>
    <path d="M 130.7361 617.7911 133.7072 616.9989 131.5284 621.7526 126.9728 612.6413 131.1322 612.0471 130.7361 617.7911 Z M 125.5863 595.4092 130.9342 599.9648 125.5863 604.5204 115.0885 592.4381 119.0499 589.6652 125.5863 595.4092 Z M 88.349 504.0988 92.5085 504.0988 95.6776 515.7849 94.8854 523.5096 92.3104 525.8865 88.151 522.5193 88.349 504.0988 Z M 93.895 502.118 91.9143 502.7123 88.7452 491.0261 90.5278 489.0454 96.0738 497.3644 93.895 502.118 Z M 214.1237 562.3314 200.4569 573.4234 194.3167 574.2157 187.7804 589.6652 180.2537 595.2111 178.0749 593.2304 178.8672 587.4864 185.2054 580.1578 176.6884 556.7855 178.6691 552.2299 169.3598 548.4665 166.5868 542.5244 159.8524 538.7611 155.891 538.1669 155.0988 541.9302 151.3354 540.1476 148.5624 548.4665 151.5335 548.6646 142.2242 576.1964 135.6879 577.7809 134.4994 574.6118 125.7843 569.462 117.8615 574.8099 118.4557 576.7906 112.9098 578.5732 105.5812 576.3944 107.3638 574.0176 101.6198 569.2639 103.7985 564.3121 102.0159 549.4569 104.5908 540.1476 100.8275 531.0363 96.668 530.4421 99.639 523.5096 106.9677 517.7656 109.5426 519.5482 109.3445 517.5675 107.7599 512.2196 104.1947 514.0023 102.6101 512.4177 97.8564 500.1373 100.6294 501.92 106.5715 498.3547 112.5136 502.9103 107.958 491.8184 104.1947 497.3644 97.8564 492.4126 97.0641 480.7264 94.2911 478.7457 93.3008 487.0647 85.9722 488.8473 83.3973 485.084 86.1703 483.4994 89.7355 486.2724 87.1606 481.5187 88.5471 474.5863 95.2815 476.1708 88.151 469.6345 85.378 474.1901 87.7548 465.475 92.5085 463.2963 98.4506 464.8808 100.8275 462.3059 97.0641 463.8905 92.7066 461.3156 87.1606 464.0885 75.4745 448.2429 85.378 464.0885 83.3973 483.3014 78.0494 473.1998 80.0301 470.0306 78.0494 456.958 68.9381 443.4892 62.798 431.605 61.6095 425.0687 59.4308 420.315 58.6385 419.3246 60.8173 419.3246 89.9336 421.7015 109.1464 428.4359 134.1033 418.9285 143.4126 407.8365 155.0988 406.8462 166.3888 412.5902 175.8961 423.286 193.5244 431.2089 197.6839 434.1799 202.8337 437.349 204.2202 438.5375 194.9109 439.924 193.7225 441.1124 193.5244 442.895 193.7225 444.0834 193.9205 444.8757 194.1186 446.2622 194.1186 447.8468 192.7321 453.5908 195.7032 471.2191 213.9257 485.4801 223.235 486.0743 231.752 491.0261 229.7713 498.5528 237.6941 513.6061 234.3269 523.7077 237.0999 527.273 241.2594 539.3553 236.7037 540.3456 235.3173 541.1379 228.5829 553.6163 221.2543 553.8144 220.0658 555.0028 214.1237 562.3314 Z" id="KH.KK" fill="#cee3f5" stroke="#6e6e6e" stroke-width="0.4">
      <desc>
        <labelrank>7</labelrank>
        <code_hasc>KH.KK</code_hasc>
        <name>Kaôh Kong</name>
        <admin>Cambodia</admin>
        <type_en>Province</type_en>
        <region/>
        <woe_id>2344934</woe_id>
        <longitude>103</longitude>
        <woe_name>Kaôh Kong</woe_name>
        <fips>CB08</fips>
        <woe_label>Kaoh Kong, KH, Cambodia</woe_label>
        <latitude>11</latitude>
        <iso_a2>KH</iso_a2>
        <postal>KK</postal>
        <type>Khêt</type>
        <id>KH.KK</id>
      </desc>
    </path>
    <path d="M 247.9938 325.4393 276.1198 352.1788 275.3275 368.0244 267.8008 380.1067 251.9552 388.6237 247.7957 394.1697 246.2111 401.6964 248.786 411.798 244.6266 415.1652 237.0999 415.3632 230.1674 426.4552 231.752 429.6243 221.6504 433.5857 215.1141 428.6339 204.2202 438.5375 202.8337 437.349 197.6839 434.1799 193.5244 431.2089 175.8961 423.286 166.3888 412.5902 155.0988 406.8462 143.4126 407.8365 134.1033 418.9285 109.1464 428.4359 89.9336 421.7015 60.8173 419.3246 58.6385 419.3246 49.1311 401.1022 53.0925 376.5414 59.0346 368.0244 65.1748 370.2032 84.7838 361.0919 89.3394 356.1402 98.4506 359.1112 132.5187 347.0289 157.2775 350.7923 167.9733 347.8212 175.3019 335.937 172.9251 325.0431 175.5 316.9222 172.9251 313.1589 180.2537 305.4342 183.6209 295.3326 180.8479 287.8059 197.6839 271.9603 247.9938 325.4393 Z" id="KH.PO" fill="#cee3f5" stroke="#6e6e6e" stroke-width="0.4">
      <desc>
        <labelrank>7</labelrank>
        <code_hasc>KH.PO</code_hasc>
        <name>Pouthisat</name>
        <admin>Cambodia</admin>
        <type_en>Province</type_en>
        <region/>
        <woe_id>2344937</woe_id>
        <longitude>103</longitude>
        <woe_name>Pouthisat</woe_name>
        <fips>CB12</fips>
        <woe_label>Pouthisat, KH, Cambodia</woe_label>
        <latitude>12</latitude>
        <iso_a2>KH</iso_a2>
        <postal>PO</postal>
        <type>Khêt</type>
        <id>KH.PO</id>
      </desc>
    </path>
    <path d="M 283.8445 109.1464 281.2696 122.8133 288.9943 131.3303 282.6561 139.2531 275.7236 166.5868 269.7815 176.2923 273.1487 177.6788 278.8927 190.3553 277.1101 206.0028 278.6947 210.5585 305.038 216.5006 312.9608 214.3218 300.0863 233.5346 297.3133 253.7378 293.9461 258.6896 286.8156 261.8587 284.8348 280.8734 281.6657 281.2696 273.5448 302.8593 258.8876 311.7724 247.9938 325.4393 197.6839 271.9603 179.4614 247.2015 166.983 244.4285 155.693 237.8922 149.3547 238.0902 144.7991 233.5346 144.601 204.0221 148.1663 197.4858 146.7798 176.6884 148.7605 171.7367 162.6254 168.1714 180.4518 158.664 198.8723 140.0454 233.3365 124.1998 234.525 120.8326 230.1674 115.2866 229.5732 108.9484 238.0902 105.7792 242.0516 107.7599 246.8053 102.6101 249.9745 106.1754 256.1146 103.2043 283.8445 109.1464 Z" id="KH.SI" fill="#cee3f5" stroke="#6e6e6e" stroke-width="0.4">
      <desc>
        <labelrank>7</labelrank>
        <code_hasc>KH.SI</code_hasc>
        <name>Siemréab</name>
        <admin>Cambodia</admin>
        <type_en>Province</type_en>
        <region/>
        <woe_id>2344941</woe_id>
        <longitude>104</longitude>
        <woe_name>Siemréab</woe_name>
        <fips>CB24</fips>
        <woe_label>Siem Reap Province, KH, Cambodia</woe_label>
        <latitude>13</latitude>
        <iso_a2>KH</iso_a2>
        <postal>SI</postal>
        <type>Khêt</type>
        <id>KH.SI</id>
      </desc>
    </path>
    <path d="M 229.5732 108.9484 230.1674 115.2866 234.525 120.8326 233.3365 124.1998 198.8723 140.0454 180.4518 158.664 162.6254 168.1714 148.7605 171.7367 146.7798 164.6061 137.0743 156.4852 135.2917 147.9682 126.5766 156.2872 119.8422 149.1566 116.277 149.1566 117.4654 140.2435 108.5522 138.2628 105.185 131.3303 94.4892 124.0017 107.7599 114.0982 140.0454 108.9484 147.7701 104.7889 151.3354 106.5715 162.4274 100.2333 170.5482 102.412 176.0942 97.0641 180.4518 99.0448 181.046 104.7889 200.4569 107.3638 206.597 110.731 210.7565 110.9291 213.1334 107.958 220.2639 107.5619 223.8292 110.5329 229.5732 108.9484 Z" id="KH.OC" fill="#cee3f5" stroke="#6e6e6e" stroke-width="0.4">
      <desc>
        <labelrank>7</labelrank>
        <code_hasc>KH.OC</code_hasc>
        <name>Otdar Mean Chey</name>
        <admin>Cambodia</admin>
        <type_en>Province</type_en>
        <region/>
        <woe_id>20070092</woe_id>
        <longitude>103</longitude>
        <woe_name>Otdar Mean Chey</woe_name>
        <fips>CB27</fips>
        <woe_label>Otdar Mean Cheay, KH, Cambodia</woe_label>
        <latitude>14</latitude>
        <iso_a2>KH</iso_a2>
        <postal>OC</postal>
        <type>Khêt</type>
        <id>KH.OC</id>
      </desc>
    </path>
    <path d="M 23.7781 336.9274 21.5993 328.0142 25.3627 318.903 20.0148 300.0863 23.382 290.975 34.87 289.5885 39.2276 277.5062 47.9427 275.3275 56.6578 284.8348 58.8365 298.6998 56.0636 325.4393 45.5658 331.5795 23.7781 336.9274 Z" id="KH.PL" fill="#cee3f5" stroke="#6e6e6e" stroke-width="0.4">
      <desc>
        <labelrank>7</labelrank>
        <code_hasc>KH.PL</code_hasc>
        <name>Krong Pailin</name>
        <admin>Cambodia</admin>
        <type_en>Municipality</type_en>
        <region/>
        <woe_id>20070097</woe_id>
        <longitude>102</longitude>
        <woe_name>Krong Pailin</woe_name>
        <fips>CB30</fips>
        <woe_label>Pailin, KH, Cambodia</woe_label>
        <latitude>12</latitude>
        <iso_a2>KH</iso_a2>
        <postal>PL</postal>
        <type>Municipality</type>
        <id>KH.PL</id>
      </desc>
    </path>
    <path d="M 539.7514 430.6146 545.6935 444.2815 540.1476 458.1464 545.2974 469.4364 544.109 471.4171 534.6016 467.8519 523.9058 469.6345 517.1714 463.0982 489.4415 457.1561 478.7457 474.3882 468.6442 471.8133 463.6924 474.5863 464.4847 467.4557 456.5619 467.6538 447.6487 460.5233 415.9574 456.958 408.8269 447.8468 398.5272 444.0834 375.353 460.5233 361.8842 457.1561 364.6572 450.6198 354.7537 441.5085 352.1788 440.9143 345.6425 451.0159 341.483 452.2043 334.1544 449.8275 330.7872 441.1124 336.7293 429.2281 343.2656 428.4359 337.3235 415.5613 341.8791 402.2906 339.8984 394.962 344.8502 391.3967 350.7923 391.5948 358.9132 396.3485 376.7395 397.735 381.097 400.5079 372.9762 377.3337 377.1356 373.9665 390.0102 373.7684 400.706 379.1163 407.8365 361.29 413.9767 361.0919 422.0976 364.8553 429.0301 360.8939 454.3831 358.1209 458.1464 380.3048 454.185 390.8025 464.8808 391.9909 466.6635 398.1311 474.1901 396.1504 489.2435 402.2906 495.5817 408.6288 494.7894 413.9767 509.2486 421.8995 511.4274 426.2571 508.8524 431.605 519.3502 433.9818 539.7514 430.6146 Z" id="KH.KM" fill="#cee3f5" stroke="#6e6e6e" stroke-width="0.4">
      <desc>
        <labelrank>7</labelrank>
        <code_hasc>KH.KM</code_hasc>
        <name>Kâmpóng Cham</name>
        <admin>Cambodia</admin>
        <type_en>Province</type_en>
        <region/>
        <woe_id>2344928</woe_id>
        <longitude>105</longitude>
        <woe_name>Kâmpóng Cham</woe_name>
        <fips>CB02</fips>
        <woe_label>Kampong Cham, KH, Cambodia</woe_label>
        <latitude>12</latitude>
        <iso_a2>KH</iso_a2>
        <postal>KM</postal>
        <type>Khêt</type>
        <id>KH.KM</id>
      </desc>
    </path>
    <path d="M 339.8984 394.962 341.8791 402.2906 337.3235 415.5613 343.2656 428.4359 336.7293 429.2281 330.7872 441.1124 326.0335 443.0931 323.2605 450.4217 305.6322 453.9869 290.975 461.9098 271.7622 454.5812 264.8297 447.2526 256.1146 426.8513 250.3706 422.0976 248.786 411.798 246.2111 401.6964 247.7957 394.1697 251.9552 388.6237 267.8008 380.1067 275.3275 368.0244 276.1198 352.1788 289.1924 356.5363 293.3519 350.7923 305.8303 345.6425 332.3717 354.7537 331.3814 360.2997 337.3235 371.7877 336.9274 375.7491 342.2753 373.7684 343.6617 375.9472 335.3428 386.2469 339.8984 394.962 Z" id="KH.KG" fill="#cee3f5" stroke="#6e6e6e" stroke-width="0.4">
      <desc>
        <labelrank>7</labelrank>
        <code_hasc>KH.KG</code_hasc>
        <name>Kâmpóng Chhnang</name>
        <admin>Cambodia</admin>
        <type_en>Province</type_en>
        <region/>
        <woe_id>2344929</woe_id>
        <longitude>104</longitude>
        <woe_name>Kâmpóng Chhnang</woe_name>
        <fips>CB03</fips>
        <woe_label>Kampong Chhnang, KH, Cambodia</woe_label>
        <latitude>12</latitude>
        <iso_a2>KH</iso_a2>
        <postal>KG</postal>
        <type>Khêt</type>
        <id>KH.KG</id>
      </desc>
    </path>
    <path d="M 375.353 460.5233 370.0051 482.311 374.5607 489.4415 393.9716 503.7026 393.9716 506.6737 389.8121 509.4467 393.3774 529.6498 386.2469 540.1476 380.7009 558.172 382.6816 575.6022 367.8263 572.6311 365.2514 568.2736 359.9035 571.4427 356.1402 559.7565 358.319 538.1669 346.4347 525.2923 345.8405 515.983 337.7196 513.6061 325.6373 515.7849 320.8837 513.21 326.2316 505.2872 314.1493 505.2872 308.4052 501.1277 310.9801 478.7457 316.5261 462.9001 322.8644 457.5522 323.2605 450.4217 326.0335 443.0931 330.7872 441.1124 334.1544 449.8275 341.483 452.2043 345.6425 451.0159 352.1788 440.9143 354.7537 441.5085 364.6572 450.6198 361.8842 457.1561 375.353 460.5233 Z M 330.391 502.7123 339.3042 498.1566 344.6521 501.1277 350 494.3933 350.5942 486.8666 347.4251 485.084 344.454 470.0306 336.3331 469.8326 337.5216 473.9921 330.391 474.1901 326.8258 480.5284 328.0142 491.0261 325.8354 499.3451 330.391 502.7123 Z" id="KH.KN" fill="#cee3f5" stroke="#6e6e6e" stroke-width="0.4">
      <desc>
        <labelrank>7</labelrank>
        <code_hasc>KH.KN</code_hasc>
        <name>Kândal</name>
        <admin>Cambodia</admin>
        <type_en>Province</type_en>
        <region/>
        <woe_id>2344933</woe_id>
        <longitude>104</longitude>
        <woe_name>Kândal</woe_name>
        <fips>CB07</fips>
        <woe_label>Kandal, KH, Cambodia</woe_label>
        <latitude>11</latitude>
        <iso_a2>KH</iso_a2>
        <postal>KN</postal>
        <type>Khêt</type>
        <id>KH.KN</id>
      </desc>
    </path>
    <path d="M 323.2605 450.4217 322.8644 457.5522 316.5261 462.9001 310.9801 478.7457 308.4052 501.1277 314.1493 505.2872 326.2316 505.2872 320.8837 513.21 315.7338 518.1617 311.5743 547.6742 296.521 549.2588 280.0812 544.7032 256.7089 544.9012 241.2594 539.3553 237.0999 527.273 236.3076 526.0846 235.1192 524.8961 234.3269 523.7077 237.6941 513.6061 229.7713 498.5528 231.752 491.0261 223.235 486.0743 213.9257 485.4801 195.7032 471.2191 192.7321 453.5908 194.1186 447.8468 194.1186 446.2622 193.9205 444.8757 193.7225 444.0834 193.5244 442.895 193.7225 441.1124 204.2202 438.5375 215.1141 428.6339 221.6504 433.5857 231.752 429.6243 230.1674 426.4552 237.0999 415.3632 244.6266 415.1652 248.786 411.798 250.3706 422.0976 256.1146 426.8513 264.8297 447.2526 271.7622 454.5812 290.975 461.9098 305.6322 453.9869 323.2605 450.4217 Z" id="KH.KS" fill="#cee3f5" stroke="#6e6e6e" stroke-width="0.4">
      <desc>
        <labelrank>7</labelrank>
        <code_hasc>KH.KS</code_hasc>
        <name>Kâmpóng Spœ</name>
        <admin>Cambodia</admin>
        <type_en>Province</type_en>
        <region/>
        <woe_id>2344930</woe_id>
        <longitude>104</longitude>
        <woe_name>Kâmpóng Spœ</woe_name>
        <fips>CB04</fips>
        <woe_label>Kampong Spoe, KH, Cambodia</woe_label>
        <latitude>11</latitude>
        <iso_a2>KH</iso_a2>
        <postal>KS</postal>
        <type>Khêt</type>
        <id>KH.KS</id>
      </desc>
    </path>
    <path d="M 431.0108 255.5204 435.3683 273.1487 440.122 279.4869 440.5182 294.5403 443.8854 299.4921 442.1027 303.8496 446.0641 310.7821 444.6776 321.6759 454.3831 358.1209 429.0301 360.8939 422.0976 364.8553 413.9767 361.0919 407.8365 361.29 400.706 379.1163 390.0102 373.7684 377.1356 373.9665 372.9762 377.3337 381.097 400.5079 376.7395 397.735 358.9132 396.3485 350.7923 391.5948 344.8502 391.3967 339.8984 394.962 335.3428 386.2469 343.6617 375.9472 342.2753 373.7684 336.9274 375.7491 337.3235 371.7877 331.3814 360.2997 332.3717 354.7537 305.8303 345.6425 293.3519 350.7923 289.1924 356.5363 276.1198 352.1788 247.9938 325.4393 258.8876 311.7724 273.5448 302.8593 281.6657 281.2696 284.8348 280.8734 286.8156 261.8587 293.9461 258.6896 297.3133 253.7378 318.903 243.6362 340.8888 246.8053 338.9081 260.8683 340.8888 271.5641 343.8598 274.5352 354.5556 276.3178 367.4302 269.9796 379.9086 257.6992 405.8558 239.2787 426.8513 228.7809 426.8513 242.2497 431.0108 255.5204 Z" id="KH.KT" fill="#cee3f5" stroke="#6e6e6e" stroke-width="0.4">
      <desc>
        <labelrank>7</labelrank>
        <code_hasc>KH.KT</code_hasc>
        <name>Kâmpóng Thum</name>
        <admin>Cambodia</admin>
        <type_en>Province</type_en>
        <region/>
        <woe_id>2344931</woe_id>
        <longitude>104</longitude>
        <woe_name>Kâmpóng Thum</woe_name>
        <fips>CB05</fips>
        <woe_label>Kampong Thum, KH, Cambodia</woe_label>
        <latitude>12</latitude>
        <iso_a2>KH</iso_a2>
        <postal>KT</postal>
        <type>Khêt</type>
        <id>KH.KT</id>
      </desc>
    </path>
    <path d="M 330.391 502.7123 325.8354 499.3451 328.0142 491.0261 326.8258 480.5284 330.391 474.1901 337.5216 473.9921 336.3331 469.8326 344.454 470.0306 347.4251 485.084 350.5942 486.8666 350 494.3933 344.6521 501.1277 339.3042 498.1566 330.391 502.7123 Z" id="KH.PP" fill="#cee3f5" stroke="#6e6e6e" stroke-width="0.4">
      <desc>
        <labelrank>9</labelrank>
        <code_hasc>KH.PP</code_hasc>
        <name>Phnom Penh</name>
        <admin>Cambodia</admin>
        <type_en>Municipality</type_en>
        <region/>
        <woe_id>20070095</woe_id>
        <longitude>104</longitude>
        <woe_name>Phnom Penh</woe_name>
        <fips>CB22</fips>
        <woe_label>Phnum Penh, KH, Cambodia</woe_label>
        <latitude>11</latitude>
        <iso_a2>KH</iso_a2>
        <postal>PP</postal>
        <type>Municipality</type>
        <id>KH.PP</id>
      </desc>
    </path>
    <path d="M 463.6924 474.5863 460.1271 482.5091 447.8468 485.8763 444.8757 491.6203 441.3104 506.0795 443.0931 525.8865 437.5471 530.046 435.7645 536.9784 438.1413 547.08 433.1896 559.3604 436.9529 564.9064 417.9381 569.0658 409.4211 566.0948 397.1407 582.7327 382.6816 575.6022 380.7009 558.172 386.2469 540.1476 393.3774 529.6498 389.8121 509.4467 393.9716 506.6737 393.9716 503.7026 374.5607 489.4415 370.0051 482.311 375.353 460.5233 398.5272 444.0834 408.8269 447.8468 415.9574 456.958 447.6487 460.5233 456.5619 467.6538 464.4847 467.4557 463.6924 474.5863 Z" id="KH.PY" fill="#cee3f5" stroke="#6e6e6e" stroke-width="0.4">
      <desc>
        <labelrank>7</labelrank>
        <code_hasc>KH.PY</code_hasc>
        <name>Prey Vêng</name>
        <admin>Cambodia</admin>
        <type_en>Province</type_en>
        <region/>
        <woe_id>2344939</woe_id>
        <longitude>105</longitude>
        <woe_name>Prey Vêng</woe_name>
        <fips>CB14</fips>
        <woe_label>Prey Veng, KH, Cambodia</woe_label>
        <latitude>11</latitude>
        <iso_a2>KH</iso_a2>
        <postal>PY</postal>
        <type>Khêt</type>
        <id>KH.PY</id>
      </desc>
    </path>
    <path d="M 472.6056 167.181 449.2333 169.1617 447.2526 175.8961 436.5568 177.4807 431.8031 173.5193 424.4745 178.8672 424.2764 188.5726 428.6339 194.5148 431.2089 206.2009 429.6243 225.2157 426.8513 228.7809 405.8558 239.2787 379.9086 257.6992 367.4302 269.9796 354.5556 276.3178 343.8598 274.5352 340.8888 271.5641 338.9081 260.8683 340.8888 246.8053 318.903 243.6362 297.3133 253.7378 300.0863 233.5346 312.9608 214.3218 305.038 216.5006 278.6947 210.5585 277.1101 206.0028 278.8927 190.3553 273.1487 177.6788 269.7815 176.2923 275.7236 166.5868 282.6561 139.2531 288.9943 131.3303 281.2696 122.8133 283.8445 109.1464 288.202 106.9677 297.5114 107.5619 303.6515 100.8275 311.3763 102.214 314.5454 98.8468 317.1203 102.6101 327.0238 98.2526 351.3865 105.9773 351.7826 116.8712 361.0919 128.5573 368.2225 126.1805 375.1549 112.9098 379.1163 110.731 380.7009 120.8326 388.6237 132.7168 399.3195 142.4222 410.4115 142.8184 424.8706 135.0936 432.9915 138.857 435.9625 143.4126 439.3297 141.828 452.6005 145.3933 458.3445 155.693 472.6056 167.181 Z" id="KH.PH" fill="#cee3f5" stroke="#6e6e6e" stroke-width="0.4">
      <desc>
        <labelrank>7</labelrank>
        <code_hasc>KH.PH</code_hasc>
        <name>Preah Vihéar</name>
        <admin>Cambodia</admin>
        <type_en>Province</type_en>
        <region/>
        <woe_id>2344938</woe_id>
        <longitude>105</longitude>
        <woe_name>Preah Vihéar</woe_name>
        <fips>CB13</fips>
        <woe_label>Preah Vihear, KH, Cambodia</woe_label>
        <latitude>13</latitude>
        <iso_a2>KH</iso_a2>
        <postal>PH</postal>
        <type>Khêt</type>
        <id>KH.PH</id>
      </desc>
    </path>
    <path d="M 567.6793 94.8854 565.5006 104.5908 568.0755 116.475 563.3218 139.8473 569.0658 152.92 573.8195 179.8575 559.5585 215.7083 565.6986 228.979 566.8871 246.0131 544.5051 234.723 534.2054 234.525 527.273 235.5153 514.9926 242.8439 501.5238 244.2304 490.0358 263.6413 483.4994 263.4432 479.1419 273.1487 472.8036 275.9217 465.475 274.5352 449.4313 263.0471 431.0108 255.5204 426.8513 242.2497 426.8513 228.7809 429.6243 225.2157 431.2089 206.2009 428.6339 194.5148 424.2764 188.5726 424.4745 178.8672 431.8031 173.5193 436.5568 177.4807 447.2526 175.8961 449.2333 169.1617 472.6056 167.181 495.3837 168.1714 497.1663 159.4563 505.8814 149.7509 496.1759 133.5091 487.857 126.5766 486.6686 118.0596 482.1129 112.3156 482.7072 107.7599 491.0261 110.1368 494.3933 106.7696 508.8524 107.1657 512.8138 103.0062 516.181 90.924 526.2826 96.8661 540.9398 93.895 544.5051 89.5375 543.3167 86.1703 549.6549 86.1703 547.8723 80.8224 553.2202 77.2571 557.3797 87.7548 567.6793 94.8854 Z" id="KH.ST" fill="#cee3f5" stroke="#6e6e6e" stroke-width="0.4">
      <desc>
        <labelrank>7</labelrank>
        <code_hasc>KH.ST</code_hasc>
        <name>Stœng Trêng</name>
        <admin>Cambodia</admin>
        <type_en>Province</type_en>
        <region/>
        <woe_id>2344942</woe_id>
        <longitude>106</longitude>
        <woe_name>Stœng Trêng</woe_name>
        <fips>CB17</fips>
        <woe_label>Stoeng Treng, KH, Cambodia</woe_label>
        <latitude>13</latitude>
        <iso_a2>KH</iso_a2>
        <postal>ST</postal>
        <type>Khêt</type>
        <id>KH.ST</id>
      </desc>
    </path>
    <path d="M 592.042 416.7497 586.6941 418.7304 580.3558 429.8224 577.5829 430.6146 554.2106 429.6243 550.2491 432.3973 545.8916 429.4262 539.7514 430.6146 519.3502 433.9818 508.8524 431.605 511.4274 426.2571 509.2486 421.8995 494.7894 413.9767 495.5817 408.6288 489.2435 402.2906 474.1901 396.1504 466.6635 398.1311 464.8808 391.9909 454.185 390.8025 458.1464 380.3048 454.3831 358.1209 444.6776 321.6759 446.0641 310.7821 442.1027 303.8496 443.8854 299.4921 440.5182 294.5403 440.122 279.4869 435.3683 273.1487 431.0108 255.5204 449.4313 263.0471 465.475 274.5352 472.8036 275.9217 479.1419 273.1487 483.4994 263.4432 490.0358 263.6413 501.5238 244.2304 514.9926 242.8439 527.273 235.5153 534.2054 234.525 534.7997 255.3224 544.7032 268.9892 534.6016 270.7719 533.017 278.6947 543.3167 290.1827 566.8871 301.6708 568.8678 310.1879 561.9353 318.7049 542.3263 328.6084 536.1862 346.4347 535.9881 355.3479 560.3507 370.4012 566.2928 383.4739 580.9501 388.2276 588.0806 393.7736 591.6459 399.7157 592.042 416.7497 Z" id="KH.KH" fill="#cee3f5" stroke="#6e6e6e" stroke-width="0.4">
      <desc>
        <labelrank>7</labelrank>
        <code_hasc>KH.KH</code_hasc>
        <name>Krâchéh</name>
        <admin>Cambodia</admin>
        <type_en>Province</type_en>
        <region/>
        <woe_id>2344935</woe_id>
        <longitude>106</longitude>
        <woe_name>Krâchéh</woe_name>
        <fips>CB09</fips>
        <woe_label>Krachen, KH, Cambodia</woe_label>
        <latitude>12</latitude>
        <iso_a2>KH</iso_a2>
        <postal>KH</postal>
        <type>Khêt</type>
        <id>KH.KH</id>
      </desc>
    </path>
    <path d="M 566.8871 246.0131 590.6555 265.424 601.1532 268.7911 624.7236 267.8008 629.6754 259.0857 627.1005 251.559 629.4773 247.9938 645.3229 248.1918 652.0573 240.6652 658.9898 248.786 664.9319 247.7957 668.6952 252.9455 680.3814 245.815 685.7293 249.3802 694.4444 250.5687 679.5891 287.4098 682.3621 291.7673 680.5795 296.7191 683.3524 307.811 689.8888 317.3184 694.0482 343.2656 693.0579 361.29 687.71 378.7202 674.6373 390.8025 671.6663 391.0006 661.9608 380.899 647.6998 384.0681 639.777 388.0295 613.6317 414.769 592.042 416.7497 591.6459 399.7157 588.0806 393.7736 580.9501 388.2276 566.2928 383.4739 560.3507 370.4012 535.9881 355.3479 536.1862 346.4347 542.3263 328.6084 561.9353 318.7049 568.8678 310.1879 566.8871 301.6708 543.3167 290.1827 533.017 278.6947 534.6016 270.7719 544.7032 268.9892 534.7997 255.3224 534.2054 234.525 544.5051 234.723 566.8871 246.0131 Z" id="KH.MK" fill="#cee3f5" stroke="#6e6e6e" stroke-width="0.4">
      <desc>
        <labelrank>7</labelrank>
        <code_hasc>KH.MK</code_hasc>
        <name>Môndól Kiri</name>
        <admin>Cambodia</admin>
        <type_en>Province</type_en>
        <region/>
        <woe_id>2344936</woe_id>
        <longitude>106</longitude>
        <woe_name>Môndól Kiri</woe_name>
        <fips>CB10</fips>
        <woe_label>Mondol Kiri, KH, Cambodia</woe_label>
        <latitude>12</latitude>
        <iso_a2>KH</iso_a2>
        <postal>MK</postal>
        <type>Khêt</type>
        <id>KH.MK</id>
      </desc>
    </path>
    <path d="M 694.4444 250.5687 685.7293 249.3802 680.3814 245.815 668.6952 252.9455 664.9319 247.7957 658.9898 248.786 652.0573 240.6652 645.3229 248.1918 629.4773 247.9938 627.1005 251.559 629.6754 259.0857 624.7236 267.8008 601.1532 268.7911 590.6555 265.424 566.8871 246.0131 565.6986 228.979 559.5585 215.7083 573.8195 179.8575 569.0658 152.92 563.3218 139.8473 568.0755 116.475 565.5006 104.5908 567.6793 94.8854 578.7713 98.6487 592.042 114.2963 595.8053 115.0885 602.3417 111.1271 610.2645 112.7117 620.7622 97.4603 627.6947 102.214 630.4677 101.2236 638.1924 95.2815 640.9654 89.1413 646.1152 88.9432 647.8978 82.605 654.8303 75.2764 671.6663 82.4069 676.2219 70.5227 685.1351 60.6192 686.7196 64.1844 683.1544 74.4841 683.5505 82.605 678.2026 95.0834 675.4296 98.6487 668.101 98.8468 663.5454 109.7406 664.5358 123.6056 659.7821 139.6493 664.3377 155.4949 674.4393 157.6737 676.42 184.8093 697.0193 218.0851 699 236.1095 694.4444 250.5687 Z" id="KH.RO" fill="#cee3f5" stroke="#6e6e6e" stroke-width="0.4">
      <desc>
        <labelrank>7</labelrank>
        <code_hasc>KH.RO</code_hasc>
        <name>Rôtânôkiri</name>
        <admin>Cambodia</admin>
        <type_en>Province</type_en>
        <region/>
        <woe_id>2344940</woe_id>
        <longitude>107</longitude>
        <woe_name>Rôtânôkiri</woe_name>
        <fips>CB23</fips>
        <woe_label>Ratanah Kiri, KH, Cambodia</woe_label>
        <latitude>13</latitude>
        <iso_a2>KH</iso_a2>
        <postal>RO</postal>
        <type>Khêt</type>
        <id>KH.RO</id>
      </desc>
    </path>
    <path d="M 280.0812 544.7032 280.8734 552.4279 293.1538 557.5778 295.7287 567.2832 294.5403 574.4137 315.3377 575.9983 320.0914 589.0709 311.7724 601.9455 316.13 609.2741 314.9415 625.1198 297.1152 624.5255 286.0233 639.3808 281.6657 639.1827 278.1005 634.8252 271.7622 619.3757 259.4818 617.9892 257.5011 621.3564 254.9262 618.7815 249.1822 621.5545 231.1578 620.7622 214.5199 616.2066 210.5585 612.4432 210.7565 612.4432 210.9546 612.2452 211.5488 611.4529 214.1237 607.6896 215.5102 604.1243 215.7083 602.1436 214.1237 562.3314 220.0658 555.0028 221.2543 553.8144 228.5829 553.6163 235.3173 541.1379 241.2594 539.3553 256.7089 544.9012 280.0812 544.7032 Z" id="KH.KP" fill="#cee3f5" stroke="#6e6e6e" stroke-width="0.4">
      <desc>
        <labelrank>7</labelrank>
        <code_hasc>KH.KP</code_hasc>
        <name>Kâmpôt</name>
        <admin>Cambodia</admin>
        <type_en>Province</type_en>
        <region/>
        <woe_id>2344932</woe_id>
        <longitude>104</longitude>
        <woe_name>Kâmpôt</woe_name>
        <fips>CB21</fips>
        <woe_label>Kampot, KH, Cambodia</woe_label>
        <latitude>10</latitude>
        <iso_a2>KH</iso_a2>
        <postal>KP</postal>
        <type>Khêt</type>
        <id>KH.KP</id>
      </desc>
    </path>
    <path d="M 278.1005 634.8252 275.9217 635.6175 269.9796 629.8734 261.2645 630.8638 257.5011 621.3564 259.4818 617.9892 271.7622 619.3757 278.1005 634.8252 Z" id="KH.1806" fill="#cee3f5" stroke="#6e6e6e" stroke-width="0.4">
      <desc>
        <labelrank>7</labelrank>
        <code_hasc>KH</code_hasc>
        <name>Kep</name>
        <admin>Cambodia</admin>
        <type_en>Province</type_en>
        <region/>
        <woe_id>20070094</woe_id>
        <longitude>104</longitude>
        <woe_name>Kep</woe_name>
        <fips>CB26</fips>
        <woe_label>Keb, KH, Cambodia</woe_label>
        <latitude>10</latitude>
        <iso_a2>KH</iso_a2>
        <postal>KH</postal>
        <type>Khêt</type>
        <id>KH.1806</id>
      </desc>
    </path>
    <path d="M 195.7032 633.0426 188.5726 632.8445 189.7611 626.1101 194.9109 627.2985 195.7032 633.0426 Z M 180.2537 595.2111 187.7804 589.6652 194.3167 574.2157 200.4569 573.4234 214.1237 562.3314 215.3121 566.8871 215.7083 602.1436 215.5102 604.1243 214.1237 607.6896 211.5488 611.4529 210.9546 612.2452 210.7565 612.4432 210.5585 612.4432 210.5585 612.2452 207.5874 606.8973 204.8144 606.5011 204.0221 601.3513 203.4279 614.2259 197.882 622.1487 190.7514 623.3371 182.0363 619.5738 187.9784 626.9024 173.3212 628.685 169.1617 620.3661 164.4081 620.5641 161.0409 615.0182 155.2968 612.0471 164.21 597.3899 180.2537 595.2111 Z" id="KH.KA" fill="#cee3f5" stroke="#6e6e6e" stroke-width="0.4">
      <desc>
        <labelrank>7</labelrank>
        <code_hasc>KH.KA</code_hasc>
        <name>Krong Preah Sihanouk</name>
        <admin>Cambodia</admin>
        <type_en>Municipality</type_en>
        <region/>
        <woe_id>20070096</woe_id>
        <longitude>103</longitude>
        <woe_name>Krong Preah Sihanouk</woe_name>
        <fips>CB28</fips>
        <woe_label>Preah Seihanu, KH, Cambodia</woe_label>
        <latitude>10</latitude>
        <iso_a2>KH</iso_a2>
        <postal>KA</postal>
        <type>Krong</type>
        <id>KH.KA</id>
      </desc>
    </path>
    <path d="M 436.9529 564.9064 433.1896 559.3604 438.1413 547.08 435.7645 536.9784 437.5471 530.046 443.0931 525.8865 441.3104 506.0795 444.8757 491.6203 447.8468 485.8763 460.1271 482.5091 468.6442 488.8473 470.8229 503.3065 467.0596 521.9251 472.6056 524.8961 474.3882 531.4325 486.2724 536.9784 499.3451 553.2202 502.9103 549.0607 509.0505 553.6163 512.8138 563.916 505.2872 564.9064 504.0988 570.8485 511.6254 592.2401 490.2338 585.1095 478.7457 574.8099 475.7747 582.7327 471.8133 584.1192 454.9773 558.9642 436.9529 564.9064 Z" id="KH.SR" fill="#cee3f5" stroke="#6e6e6e" stroke-width="0.4">
      <desc>
        <labelrank>7</labelrank>
        <code_hasc>KH.SR</code_hasc>
        <name>Svay Rieng</name>
        <admin>Cambodia</admin>
        <type_en>Province</type_en>
        <region/>
        <woe_id>2344943</woe_id>
        <longitude>105</longitude>
        <woe_name>Svay Rieng</woe_name>
        <fips>CB18</fips>
        <woe_label>Svay Rieng, KH, Cambodia</woe_label>
        <latitude>11</latitude>
        <iso_a2>KH</iso_a2>
        <postal>SR</postal>
        <type>Khêt</type>
        <id>KH.SR</id>
      </desc>
    </path>
    <path d="M 359.9035 571.4427 356.3383 576.7906 356.7344 581.3462 363.6669 599.5687 345.6425 610.8587 335.5409 624.1294 314.9415 625.1198 316.13 609.2741 311.7724 601.9455 320.0914 589.0709 315.3377 575.9983 294.5403 574.4137 295.7287 567.2832 293.1538 557.5778 280.8734 552.4279 280.0812 544.7032 296.521 549.2588 311.5743 547.6742 315.7338 518.1617 320.8837 513.21 325.6373 515.7849 337.7196 513.6061 345.8405 515.983 346.4347 525.2923 358.319 538.1669 356.1402 559.7565 359.9035 571.4427 Z" id="KH.TA" fill="#cee3f5" stroke="#6e6e6e" stroke-width="0.4">
      <desc>
        <labelrank>7</labelrank>
        <code_hasc>KH.TA</code_hasc>
        <name>Takêv</name>
        <admin>Cambodia</admin>
        <type_en>Province</type_en>
        <region/>
        <woe_id>2344944</woe_id>
        <longitude>104</longitude>
        <woe_name>Takêv</woe_name>
        <fips>CB19</fips>
        <woe_label>Takev, KH, Cambodia</woe_label>
        <latitude>10</latitude>
        <iso_a2>KH</iso_a2>
        <postal>TA</postal>
        <type>Khêt</type>
        <id>KH.TA</id>
      </desc>
    </path>
  </g>
</svg>